HIERARCHY
ROOT pelvis
{
  OFFSET 0 100 0
  CHANNELS 6 Xposition Yposition Zposition Zrotation Xrotation Yrotation
  JOINT pelvis_right_femur
  {
    OFFSET -10.78128 -3.44521 -0.5502486
    CHANNELS 3 Zrotation Xrotation Yrotation
    JOINT right_femur_tibia
    {
      OFFSET -0.8047443 -44.0398 -0.1307829
      CHANNELS 3 Zrotation Xrotation Yrotation
      JOINT right_tibia_foot
      {
        OFFSET 3.006224 -47.83518 -5
        CHANNELS 3 Zrotation Xrotation Yrotation
        End Site
        {
          OFFSET 0 -5 15
        }
      }
    }
  }
  JOINT pelvis_left_femur
  {
    OFFSET 10.78128 -3.44521 -0.5502486
    CHANNELS 3 Zrotation Xrotation Yrotation
    JOINT left_femur_tibia
    {
      OFFSET 0.8047443 -44.0398 -0.1307829
      CHANNELS 3 Zrotation Xrotation Yrotation
      JOINT left_tibia_foot
      {
        OFFSET -4.370144 -48.10324 -4.275266
        CHANNELS 3 Zrotation Xrotation Yrotation
        End Site
        {
          OFFSET 0 -5 15
        }
      }
    }
  }
  JOINT pelvis_spine1
  {
    OFFSET 0 6.468898 -3.129235
    CHANNELS 3 Zrotation Xrotation Yrotation
    JOINT spine1
    {
      OFFSET 0 23.15396 4.99043
      CHANNELS 3 Zrotation Xrotation Yrotation
      JOINT spine2
      {
        OFFSET 0 20.79997 -5.064912
        CHANNELS 3 Zrotation Xrotation Yrotation
        JOINT neck
        {
          OFFSET 0 14.38658 9.616178
          CHANNELS 3 Zrotation Xrotation Yrotation
          End Site
          {
            OFFSET 0 20 0
          }
        }
      }
      JOINT right_manubrium
      {
        OFFSET -5.722621 16.35077 3.967754
        CHANNELS 3 Zrotation Xrotation Yrotation
        JOINT right_clavicle
        {
          OFFSET -13.16364 1.694482 -4.693211
          CHANNELS 3 Zrotation Xrotation Yrotation
          JOINT right_humerus
          {
            OFFSET -28.5034 -0.3100689 -2.792744
            CHANNELS 3 Zrotation Xrotation Yrotation
            JOINT right_radius
            {
              OFFSET -25.15693 0.02248979 -1.271978
              CHANNELS 3 Zrotation Xrotation Yrotation
              End Site
              {
                OFFSET -15 0 0
              }
            }
          }
        }
      }
      JOINT left_manubrium
      {
        OFFSET 5.722621 16.35077 3.967754
        CHANNELS 3 Zrotation Xrotation Yrotation
        JOINT left_clavicle
        {
          OFFSET 13.16364 1.694482 -4.693211
          CHANNELS 3 Zrotation Xrotation Yrotation
          JOINT left_humerus
          {
            OFFSET 29.39168 -1.063119 -2.237045
            CHANNELS 3 Zrotation Xrotation Yrotation
            JOINT left_radius
            {
              OFFSET 24.59957 -0.9528479 0.9047498
              CHANNELS 3 Zrotation Xrotation Yrotation
              End Site
              {
                OFFSET 15 -0 -0
              }
            }
          }
        }
      }
    }
  }
}
MOTION
Frames: 10
Frame Time: 0.0416666666667
32.49878 105.0141 237.3219 1.365507 -6.921535 2.64451 1.392803 10.11621 7.22902 1.535948e-05 36.42522 -1.113726e-05 4.7413 -9.855032 -3.738677 -2.475286 -15.90007 -8.209595 -1.97448e-06 20.15328 -4.543107e-06 -6.256002 -10.11772 19.07827 -1.231986 0.07077319 8.196159 -1.23313 9.976094 -2.935435 2.797504 21.79957 5.076913 1.411407 -17.3114 8.526055 2.331119 -21.20879 10.48449 81.34625 23.75757 -7.001533 9.1678e-07 4.036382e-07 24.70792 -23.87377 13.37331 12.71224 4.098025 -14.46768 -3.020563 -94.40041 23.14236 26.74761 1.098007e-06 9.573992e-07 -8.888593 -1.280087 7.299828 16.69189
33.89938 105.4727 243.3372 1.649548 -7.50181 3.038787 0.8409898 7.987205 7.175307 1.584484e-05 43.47966 -1.215577e-05 4.472038 -8.116399 -4.412348 -3.53222 -12.59032 -9.075028 -2.374351e-06 21.26805 -2.175738e-06 -5.783905 -10.61312 18.81333 -1.615545 0.02504599 7.602551 -1.310163 10.01798 -3.158075 2.801025 22.15535 5.162912 1.397162 -17.02694 8.658892 2.663685 -20.28673 10.39459 81.987 24.13733 -7.981996 8.771409e-07 1.791422e-07 23.09281 -23.3468 13.19469 12.08614 3.812376 -14.56955 -3.267522 -93.16126 23.83559 25.04492 1.256704e-06 8.206352e-07 -9.242726 -0.9835 7.573552 16.33793
35.25539 106.2568 249.0797 1.918513 -8.121598 3.703145 0.382203 4.518759 6.969982 1.575993e-05 50.06944 -1.28573e-05 4.239979 -7.130463 -5.32573 -4.450562 -8.238045 -9.850185 -3.30748e-06 21.30389 1.027684e-06 -5.380428 -11.52135 18.23068 -1.976283 0.06233668 6.827807 -1.310592 9.986879 -3.570387 2.81571 22.62182 5.192568 1.23681 -16.65353 8.87135 2.90533 -19.31557 10.26815 83.29276 24.46312 -9.43742 9.179857e-07 -1.08928e-07 21.42588 -22.66709 13.18174 11.35626 3.602264 -14.90349 -3.58949 -91.81634 24.57384 22.78072 1.589968e-06 6.159016e-07 -10.32744 -0.5505862 7.952215 15.84001
36.5134 107.1514 254.345 2.078819 -8.579334 4.562645 0.2651416 -0.3174369 6.613094 1.184633e-05 54.01155 -1.02775e-05 3.630584 -7.277449 -6.190752 -5.084185 -3.416506 -10.63031 -3.656942e-06 20.58602 4.283088e-06 -4.885208 -12.72286 17.5154 -2.216158 0.2776051 5.901653 -1.132783 9.852695 -4.127696 2.782584 23.0182 5.188691 1.015441 -16.32247 9.059884 3.071881 -18.32952 10.14277 84.40843 24.82664 -11.09105 1.015148e-06 -3.48245e-07 19.62268 -21.35028 13.10379 10.33396 3.529849 -15.44828 -3.920393 -90.02355 25.32603 20.0361 1.869232e-06 3.850723e-07 -11.99768 0.08861101 8.567872 14.98068
37.68952 107.9588 259.3408 2.159709 -8.653533 5.531656 0.3321793 -5.289297 6.059021 7.988496e-06 54.5161 -7.383193e-06 3.070636 -7.60825 -6.869006 -5.402734 1.173907 -11.13264 -3.990874e-06 18.85292 6.250265e-06 -4.592811 -14.16111 16.78675 -2.337741 0.4414898 5.051439 -0.8813898 9.625023 -4.693282 2.769966 23.29648 5.18689 0.8349729 -16.13946 9.236265 3.023228 -17.49822 9.973505 85.62401 24.98462 -12.76232 1.079177e-06 -5.055555e-07 18.01844 -20.27847 13.02893 9.494027 3.738306 -16.14695 -4.174342 -88.4663 25.73746 17.30637 2.063686e-06 1.87637e-07 -14.03649 0.7980886 9.162258 13.99453
38.76186 108.4264 264.0984 2.222748 -8.417005 6.498885 0.5289121 -10.22092 5.445224 2.880987e-06 51.17844 -3.249478e-06 2.500218 -8.289562 -7.333789 -5.502351 5.163802 -11.49126 -3.256428e-06 16.43909 6.79418e-06 -4.196207 -15.8477 16.42266 -2.433253 0.6074943 4.321253 -0.5463676 9.335577 -5.223318 2.75238 23.41859 5.210153 0.7599418 -16.02189 9.331326 2.861391 -16.74825 9.798194 86.34688 25.10751 -14.26962 1.03303e-06 -5.689907e-07 16.46148 -19.30419 12.84761 8.743761 4.23748 -16.96575 -4.329406 -86.79854 25.90698 14.39325 1.982098e-06 5.560619e-08 -16.33081 1.510401 9.732345 12.84456
39.73732 108.4679 268.8944 2.216789 -7.863895 7.361207 0.8018183 -14.67642 4.766078 2.253533e-07 44.9107 -1.096253e-06 2.049446 -8.830753 -7.702774 -5.429014 8.773205 -11.55769 -2.671132e-06 14.18522 6.0997e-06 -4.057318 -17.49411 16.15966 -2.473066 0.6503585 3.716311 -0.1763314 8.966668 -5.721947 2.777903 23.45541 5.222134 0.7628881 -15.99576 9.379152 2.565881 -16.00348 9.573489 87.10982 25.15809 -15.77602 8.692784e-07 -5.788704e-07 14.88415 -18.70071 12.70677 8.203776 4.952396 -17.86264 -4.355829 -85.39458 25.79896 11.46501 1.779065e-06 -3.932648e-08 -18.77537 2.18912 10.1803 11.70001
40.61948 108.042 273.9017 2.219163 -7.189271 8.062003 1.030658 -18.2382 4.057154 -5.283706e-07 36.95929 -4.204999e-07 1.674922 -9.456903 -7.99639 -5.297037 11.73673 -11.38852 -2.308277e-06 12.55491 4.949645e-06 -4.042874 -18.95015 16.08192 -2.535952 0.5847425 3.269727 0.1723246 8.544726 -6.152331 2.843515 23.52058 5.191195 0.8133028 -15.96806 9.367387 2.190572 -15.25517 9.326718 87.89658 25.21539 -17.19449 5.619579e-07 -5.761334e-07 13.29695 -18.4101 12.57571 7.803404 5.763978 -18.77383 -4.270621 -84.26316 25.55986 8.572269 1.521272e-06 -9.963075e-08 -21.23027 2.819948 10.56728 10.57541
41.35258 107.1569 278.9245 2.245542 -6.669868 8.587928 1.223647 -21.45466 3.385359 -2.342334e-06 29.31032 9.704331e-07 1.000547 -10.39364 -8.214359 -5.208201 14.23625 -11.32741 -1.419484e-06 11.86604 4.319267e-06 -3.827796 -20.19172 16.20538 -2.633562 0.6131826 2.841235 0.5087912 8.135589 -6.51571 2.883174 23.65657 5.142941 0.8850563 -15.88958 9.293279 1.888731 -14.44642 9.127672 88.32168 25.44112 -18.44102 2.110294e-07 -5.447002e-07 11.54127 -17.83692 12.26034 7.233312 6.48681 -19.62325 -4.178994 -82.95421 25.39845 5.628126 1.19108e-06 -1.273677e-07 -23.47409 3.512886 11.07685 9.317901
41.96277 106.0303 284.1134 2.195547 -6.237669 8.952889 1.386831 -23.56572 2.755317 -2.374928e-06 23.25153 1.017487e-06 0.1900593 -11.20787 -8.457277 -5.099772 16.35016 -11.15206 -1.745518e-06 12.60229 4.305441e-06 -3.995542 -20.73377 16.01256 -2.657023 0.5638328 2.44839 0.773529 7.692948 -6.807382 2.952016 23.87844 4.998534 0.8883205 -15.82852 9.20636 1.5984 -13.62698 8.904991 88.96657 25.68484 -19.53426 -1.256653e-07 -5.423674e-07 9.843273 -17.27107 11.9875 6.703219 6.966956 -20.2556 -4.036627 -82.01366 25.29472 3.220758 1.068306e-06 -2.122631e-07 -25.14575 4.182467 11.5747 8.229635
